#!OML:ASF I:\Actors\actors\Patient Classification 1\Patient 1\Session 1\Subject1.ASF
:FULLY-SPECIFIED
:DEGREES
935
root 0.89542 17.4876 9.92463 13.3559 0.678986 -8.26471
lowerback -0.910396 -0.849608 4.95667
upperback -9.44529 -0.703878 3.01612
thorax -9.51725 -0.603141 0.494875
lowerneck -15.6018 0.853392 1.7053
upperneck 24.0548 -0.726621 5.48279
head 10.2996 0.474116 1.55956
rclavicle -5.80824e-015 -2.98177e-015
rhumerus -42.6776 -23.0743 -67.9228
rradius 26.1652
rwrist 48.195
rhand -13.6332 -27.0307
rfingers 7.12502
rthumb 12.4828 -56.6379
lclavicle -5.80824e-015 -2.98177e-015
lhumerus 46.0671 38.4493 121.38
lradius 10.2887
lwrist -87.6763
lhand -3.66833 -6.47878
lfingers 7.12502
lthumb 22.0724 22.2815
rfemur -5.57264 25.7913 23.6459
rtibia 1.73728
rfoot -14.6479 -29.4679
rtoes 7.12599
lfemur 3.75785 -51.5305 -12.7858
ltibia -4.94822
lfoot -30.2786 56.7821
ltoes 17.0996
936
root 0.895701 17.4878 9.92608 13.3655 0.700752 -8.27681
lowerback -0.950536 -0.847406 4.98808
upperback -9.42273 -0.702865 3.02589
thorax -9.4688 -0.603855 0.486107
lowerneck -15.4522 0.844318 1.75032
upperneck 23.9018 -0.71104 5.38361
head 10.2141 0.46814 1.51452
rclavicle -1.0107e-014 3.22528e-014
rhumerus -42.5509 -23.0691 -67.8979
rradius 26.2526
rwrist 48.1626
rhand -13.5757 -27.0064
rfingers 7.12502
rthumb 12.5382 -56.6102
lclavicle -1.0107e-014 3.22528e-014
lhumerus 44.1645 36.1982 118.303
lradius 10.5567
lwrist -84.4392
lhand -3.71263 -6.50643
lfingers 7.12502
lthumb 22.0299 22.2589
rfemur -5.56702 25.7327 23.6619
rtibia 1.71221
rfoot -14.6124 -29.4385
rtoes 7.13615
lfemur 3.7433 -51.4911 -12.7626
ltibia -4.95241
lfoot -30.0816 56.78
ltoes 16.8653
937
root 0.895531 17.4881 9.92685 13.3941 0.717954 -8.34008
lowerback -1.00873 -0.846737 5.05792
upperback -9.40433 -0.701285 3.06554
thorax -9.41524 -0.605902 0.487567
lowerneck -15.3968 0.829238 1.70815
upperneck 23.8288 -0.710659 5.36765
head 10.1766 0.460163 1.51417
rclavicle 2.84448e-014 -2.24627e-014
rhumerus -42.3427 -22.9225 -67.9669
rradius 26.3353
rwrist 47.9124
rhand -13.5756 -27.0565
rfingers 7.12502
rthumb 12.5383 -56.6603
lclavicle 2.84448e-014 -2.24627e-014
lhumerus 41.8703 33.1071 114.367
lradius 10.9541
lwrist -79.9996
lhand -3.63276 -6.31686
lfingers 7.12502
lthumb 22.1066 22.4394
rfemur -5.59692 25.7205 23.7287
rtibia 1.70137
rfoot -14.5419 -29.4501
rtoes 7.01541
lfemur 3.75666 -51.6391 -12.7045
ltibia -4.95002
lfoot -30.1741 56.9086
ltoes 16.8108
938
root 0.893594 17.4886 9.92807 13.3944 0.744986 -8.39488
lowerback -1.06145 -0.845198 5.08898
upperback -9.37978 -0.7004 3.1018
thorax -9.35694 -0.605151 0.506824
lowerneck -15.3682 0.798916 1.62537
upperneck 23.8094 -0.744093 5.42458
head 10.1649 0.443077 1.54331
rclavicle 1.77664e-015 -4.57205e-014
rhumerus -42.1183 -22.768 -68.0819
rradius 26.3946
rwrist 47.6031
rhand -13.5134 -27.233
rfingers 7.12502
rthumb 12.5982 -56.8331
lclavicle 1.77664e-015 -4.57205e-014
lhumerus 38.8735 28.3722 108.927
lradius 11.685
lwrist -73.2767
lhand -3.2076 -6.15763
lfingers 7.12502
lthumb 22.5147 22.5497
rfemur -5.57176 25.8176 23.8156
rtibia 1.67751
rfoot -14.5449 -29.559
rtoes 6.90958
lfemur 3.68293 -51.4028 -12.5467
ltibia -4.99309
lfoot -29.8067 56.7353
ltoes 16.6673
939
root 0.891115 17.4899 9.92979 13.3664 0.767397 -8.38486
lowerback -1.13159 -0.841672 5.05046
upperback -9.32563 -0.70406 3.11899
thorax -9.25327 -0.60113 0.543147
lowerneck -15.3563 0.768547 1.59813
upperneck 23.7999 -0.773338 5.40395
head 10.1596 0.424287 1.53646
rclavicle 3.721e-015 2.6339e-015
rhumerus -41.8901 -22.6867 -68.1891
rradius 26.4639
rwrist 47.2966
rhand -13.4567 -27.3332
rfingers 7.12502
rthumb 12.6529 -56.93
lclavicle 3.721e-015 2.6339e-015
lhumerus 35.5384 21.7792 102.335
lradius 13.091
lwrist -64.0866
lhand -2.67486 -6.12002
lfingers 7.12502
lthumb 23.026 22.5245
rfemur -5.49947 25.8977 23.851
rtibia 1.64142
rfoot -14.5651 -29.6639
rtoes 6.72289
lfemur 3.62877 -51.0387 -12.4724
ltibia -5.04774
lfoot -29.3013 56.4689
ltoes 16.4233
940
root 0.889166 17.4913 9.93083 13.3429 0.742031 -8.36071
lowerback -1.05526 -0.830849 5.03495
upperback -9.35155 -0.682084 3.12955
thorax -9.32648 -0.589688 0.564032
lowerneck -15.3384 0.759913 1.56896
upperneck 23.8563 -0.765789 5.34973
head 10.1756 0.419717 1.52398
rclavicle -1.36043e-014 1.82136e-014
rhumerus -41.8025 -22.5421 -68.2551
rradius 26.5976
rwrist 46.9648
rhand -13.4336 -27.2587
rfingers 7.12502
rthumb 12.6752 -56.854
lclavicle -1.36043e-014 1.82136e-014
lhumerus 32.319 14.1555 95.5554
lradius 15.4515
lwrist -53.5019
lhand -2.4868 -6.19494
lfingers 7.12502
lthumb 23.2064 22.427
rfemur -5.46225 25.9547 23.848
rtibia 1.64326
rfoot -14.5895 -29.6859
rtoes 6.59916
lfemur 3.64935 -50.8546 -12.4985
ltibia -5.07677
lfoot -29.1854 56.337
ltoes 16.3957
941
root 0.887003 17.4906 9.9326 13.3549 0.675658 -8.39084
lowerback -0.678906 -0.810197 5.13759
upperback -9.59096 -0.608142 3.1267
thorax -9.82165 -0.570397 0.515622
lowerneck -15.2244 0.761882 1.54612
upperneck 24.0471 -0.749437 5.29885
head 10.2216 0.421761 1.51433
rclavicle -7.84889e-015 -2.31087e-015
rhumerus -42.0678 -22.197 -68.2988
rradius 26.8848
rwrist 46.4477
rhand -13.2436 -27.1765
rfingers 7.12502
rthumb 12.8584 -56.7604
lclavicle -7.84889e-015 -2.31087e-015
lhumerus 29.1787 6.51181 89.2999
lradius 18.968
lwrist -42.823
lhand -2.87174 -6.40823
lfingers 7.12502
lthumb 22.8371 22.2597
rfemur -5.48632 26.0646 23.8745
rtibia 1.67908
rfoot -14.6631 -29.6988
rtoes 6.78581
lfemur 3.64845 -50.7422 -12.4443
ltibia -5.10496
lfoot -29.247 56.2554
ltoes 16.5172
942
root 0.885708 17.4891 9.93627 13.3743 0.599652 -8.42645
lowerback -0.751671 -0.774612 5.21122
upperback -9.59011 -0.559142 3.1681
thorax -9.77754 -0.549799 0.513533
lowerneck -15.1362 0.78218 1.60752
upperneck 23.9958 -0.6764 5.0919
head 10.1828 0.434407 1.43843
rclavicle -2.23167e-014 5.8393e-016
rhumerus -41.9526 -21.7406 -68.5867
rradius 27.3283
rwrist 45.5271
rhand -12.933 -27.1099
rfingers 7.12502
rthumb 13.1578 -56.6747
lclavicle -2.23167e-014 5.8393e-016
lhumerus 26.6372 -0.0518433 84.3433
lradius 23.6251
lwrist -33.353
lhand -4.10881 -6.87884
lfingers 7.12502
lthumb 21.6495 21.9308
rfemur -5.50482 26.1304 23.9023
rtibia 1.69397
rfoot -14.6932 -29.6854
rtoes 7.07171
lfemur 3.67959 -50.74 -12.413
ltibia -5.12746
lfoot -29.4088 56.2495
ltoes 16.6967
943
root 0.885442 17.4874 9.94152 13.3925 0.500135 -8.42595
lowerback -0.780162 -0.762576 5.32622
upperback -9.60147 -0.537962 3.18721
thorax -9.77592 -0.548223 0.468474
lowerneck -15.0871 0.834104 1.71266
upperneck 23.9757 -0.572616 4.88073
head 10.1626 0.465913 1.35865
rclavicle 8.85873e-015 -3.06719e-014
rhumerus -41.8735 -21.0198 -69.0698
rradius 27.9589
rwrist 44.2835
rhand -12.6429 -27.0846
rfingers 7.12502
rthumb 13.4374 -56.6312
lclavicle 8.85873e-015 -3.06719e-014
lhumerus 23.9568 -5.06593 80.6166
lradius 29.3323
lwrist -25.6304
lhand -6.39057 -7.74018
lfingers 7.12502
lthumb 19.4569 21.3063
rfemur -5.50415 26.1371 23.889
rtibia 1.68632
rfoot -14.6561 -29.6091
rtoes 7.16518
lfemur 3.75737 -50.7877 -12.4815
ltibia -5.13357
lfoot -29.7486 56.2777
ltoes 17.1421
944
root 0.88602 17.4852 9.94961 13.4592 0.299473 -8.34354
lowerback -0.85285 -0.748658 5.374
upperback -9.61525 -0.52293 3.18548
thorax -9.74892 -0.545053 0.438013
lowerneck -15.0396 0.911992 1.75581
upperneck 23.9054 -0.45162 4.81465
head 10.1253 0.515792 1.34218
rclavicle 1.83255e-016 -2.40529e-014
rhumerus -41.7871 -20.2957 -69.6117
rradius 28.6548
rwrist 42.9316
rhand -12.411 -27.1271
rfingers 7.12502
rthumb 13.6609 -56.6588
lclavicle 1.83255e-016 -2.40529e-014
lhumerus 20.9093 -8.45815 78.1608
lradius 35.8738
lwrist -20.0073
lhand -9.67577 -9.19553
lfingers 7.12502
lthumb 16.2959 20.1397
rfemur -5.54097 26.1427 23.7531
rtibia 1.66251
rfoot -14.5411 -29.4843
rtoes 6.83888
lfemur 3.85948 -50.9224 -12.711
ltibia -5.09811
lfoot -30.3465 56.4249
ltoes 17.6445
945
root 0.888868 17.4829 9.96145 13.5313 -0.0285679 -8.14186
lowerback -0.945883 -0.70461 5.30924
upperback -9.62463 -0.477459 3.14571
thorax -9.70063 -0.51932 0.426313
lowerneck -14.9163 0.991494 1.74779
upperneck 23.7215 -0.326918 4.82644
head 10.0328 0.568768 1.35966
rclavicle -9.93613e-015 5.65045e-014
rhumerus -41.6785 -19.5699 -70.2108
rradius 29.5214
rwrist 40.919
rhand -11.8246 -27.4454
rfingers 7.12502
rthumb 14.226 -56.9382
lclavicle -9.93613e-015 5.65045e-014
lhumerus 17.4081 -10.6792 76.7832
lradius 43.0123
lwrist -16.4173
lhand -13.6495 -11.1527
lfingers 7.12502
lthumb 12.4671 18.4554
rfemur -5.57189 26.1164 23.451
rtibia 1.60733
rfoot -14.318 -29.2734
rtoes 6.15391
lfemur 4.14816 -51.3619 -13.2894
ltibia -5.005
lfoot -31.4877 56.842
ltoes 18.2021
946
root 0.891364 17.4825 9.97176 13.5929 -0.353934 -8.01627
lowerback -0.974179 -0.674838 5.31528
upperback -9.63785 -0.440179 3.13883
thorax -9.69753 -0.502469 0.412754
lowerneck -14.7898 1.09825 1.74057
upperneck 23.5194 -0.151747 4.79396
head 9.93224 0.639757 1.36729
rclavicle -4.95533e-014 8.05575e-014
rhumerus -41.5794 -18.6773 -70.9045
rradius 30.598
rwrist 38.3649
rhand -10.8429 -27.9787
rfingers 7.12502
rthumb 15.1719 -57.4025
lclavicle -4.95533e-014 8.05575e-014
lhumerus 13.5405 -12.2929 75.9753
lradius 50.439
lwrist -14.3419
lhand -18.9385 -13.5933
lfingers 7.12502
lthumb 7.3645 16.2585
rfemur -5.63438 26.1504 23.2257
rtibia 1.59969
rfoot -14.1751 -29.0621
rtoes 5.58004
lfemur 4.36681 -51.5955 -13.6894
ltibia -4.95478
lfoot -32.3466 57.123
ltoes 18.7405
947
root 0.892787 17.483 9.9775 13.7139 -0.648708 -8.0885
lowerback -0.97241 -0.644486 5.507
upperback -9.6727 -0.387055 3.17321
thorax -9.74124 -0.492038 0.340698
lowerneck -14.7333 1.21269 1.78601
upperneck 23.3673 0.02066 4.73987
head 9.86379 0.713667 1.35944
rclavicle -1.09642e-014 2.62396e-014
rhumerus -41.625 -17.7331 -71.5937
rradius 31.6336
rwrist 36.4838
rhand -10.2151 -28.332
rfingers 7.12502
rthumb 15.7765 -57.7091
lclavicle -1.09642e-014 2.62396e-014
lhumerus 9.50873 -13.5875 75.4928
lradius 57.7337
lwrist -13.5252
lhand -24.392 -17.4271
lfingers 7.12502
lthumb 2.09873 12.5423
rfemur -5.84402 26.2206 23.1892
rtibia 1.68192
rfoot -14.0953 -28.8397
rtoes 5.20016
lfemur 4.24918 -51.2935 -13.5275
ltibia -4.98607
lfoot -32.4221 57.0663
ltoes 19.0051
948
root 0.895422 17.4812 9.98483 13.8585 -1.0128 -8.18601
lowerback -0.970563 -0.563414 5.77446
upperback -9.70734 -0.26578 3.15847
thorax -9.78381 -0.457066 0.169141
lowerneck -14.7607 1.26214 1.86428
upperneck 23.2397 0.0961713 4.65493
head 9.8225 0.743514 1.32422
rclavicle 1.89467e-014 -3.97569e-015
rhumerus -41.7936 -16.9842 -72.1858
rradius 32.5157
rwrist 35.3688
rhand -10.0713 -28.4722
rfingers 7.12502
rthumb 15.915 -57.8383
lclavicle 1.89467e-014 -3.97569e-015
lhumerus 5.46873 -14.5777 75.4127
lradius 64.6846
lwrist -13.6893
lhand -29.5146 -21.8055
lfingers 7.12502
lthumb -2.84868 8.15522
rfemur -6.07523 26.256 23.1563
rtibia 1.74087
rfoot -13.9371 -28.5226
rtoes 4.84598
lfemur 4.23562 -51.1697 -13.4488
ltibia -5.02249
lfoot -32.899 57.1915
ltoes 19.4157
